<mxfile host="65bd71144e" modified="2020-12-16T00:52:39.512Z" agent="5.0 (Macintosh; Intel Mac OS X 11_0_0) AppleWebKit/537.36 (KHTML, like Gecko) Code/1.52.0 Chrome/83.0.4103.122 Electron/9.3.5 Safari/537.36" etag="uVAGjALrXcoLVvkN3qZy" version="13.10.0" type="embed" pages="2">
    <diagram id="20MD_y1APo8OvBDWo7KI" name="Makefile">
        <mxGraphModel dx="464" dy="698" grid="1" gridSize="10" guides="1" tooltips="1" connect="1" arrows="1" fold="1" page="1" pageScale="1" pageWidth="850" pageHeight="1100" math="0" shadow="0">
            <root>
                <mxCell id="0"/>
                <mxCell id="1" parent="0"/>
                <mxCell id="2" value="Main.cpp" style="whiteSpace=wrap;html=1;aspect=fixed;" parent="1" vertex="1">
                    <mxGeometry x="310" y="600" width="80" height="80" as="geometry"/>
                </mxCell>
                <mxCell id="11" style="edgeStyle=orthogonalEdgeStyle;rounded=0;orthogonalLoop=1;jettySize=auto;html=1;" parent="1" source="3" target="8" edge="1">
                    <mxGeometry relative="1" as="geometry"/>
                </mxCell>
                <mxCell id="lX_xOKlXV__iZ2ej5jku-22" style="edgeStyle=orthogonalEdgeStyle;rounded=0;orthogonalLoop=1;jettySize=auto;html=1;entryX=0.5;entryY=0;entryDx=0;entryDy=0;" parent="1" source="3" target="2" edge="1">
                    <mxGeometry relative="1" as="geometry"/>
                </mxCell>
                <mxCell id="3" value="puzzle.h" style="whiteSpace=wrap;html=1;aspect=fixed;" parent="1" vertex="1">
                    <mxGeometry x="310" y="410" width="80" height="80" as="geometry"/>
                </mxCell>
                <mxCell id="14" style="edgeStyle=orthogonalEdgeStyle;rounded=0;orthogonalLoop=1;jettySize=auto;html=1;entryX=0;entryY=0.5;entryDx=0;entryDy=0;" parent="1" source="4" target="9" edge="1">
                    <mxGeometry relative="1" as="geometry"/>
                </mxCell>
                <mxCell id="lX_xOKlXV__iZ2ej5jku-23" style="edgeStyle=orthogonalEdgeStyle;rounded=0;orthogonalLoop=1;jettySize=auto;html=1;entryX=0.5;entryY=0;entryDx=0;entryDy=0;" parent="1" source="4" target="3" edge="1">
                    <mxGeometry relative="1" as="geometry"/>
                </mxCell>
                <mxCell id="4" value="sudoku.h" style="whiteSpace=wrap;html=1;aspect=fixed;" parent="1" vertex="1">
                    <mxGeometry x="310" y="160" width="80" height="80" as="geometry"/>
                </mxCell>
                <mxCell id="12" style="edgeStyle=orthogonalEdgeStyle;rounded=0;orthogonalLoop=1;jettySize=auto;html=1;entryX=0;entryY=0.5;entryDx=0;entryDy=0;" parent="1" source="5" target="3" edge="1">
                    <mxGeometry relative="1" as="geometry">
                        <Array as="points">
                            <mxPoint x="280" y="400"/>
                            <mxPoint x="280" y="450"/>
                        </Array>
                    </mxGeometry>
                </mxCell>
                <mxCell id="5" value="creates a puzzle" style="whiteSpace=wrap;html=1;aspect=fixed;" parent="1" vertex="1">
                    <mxGeometry x="160" y="360" width="80" height="80" as="geometry"/>
                </mxCell>
                <mxCell id="13" style="edgeStyle=orthogonalEdgeStyle;rounded=0;orthogonalLoop=1;jettySize=auto;html=1;entryX=0;entryY=0.5;entryDx=0;entryDy=0;" parent="1" source="6" target="3" edge="1">
                    <mxGeometry relative="1" as="geometry">
                        <Array as="points">
                            <mxPoint x="270" y="500"/>
                            <mxPoint x="270" y="450"/>
                        </Array>
                    </mxGeometry>
                </mxCell>
                <mxCell id="6" value="has attributes of a puzzle (rows, cols, ect)" style="whiteSpace=wrap;html=1;aspect=fixed;" parent="1" vertex="1">
                    <mxGeometry x="160" y="460" width="80" height="80" as="geometry"/>
                </mxCell>
                <mxCell id="16" style="edgeStyle=orthogonalEdgeStyle;rounded=0;orthogonalLoop=1;jettySize=auto;html=1;" parent="1" source="7" target="2" edge="1">
                    <mxGeometry relative="1" as="geometry"/>
                </mxCell>
                <mxCell id="7" value="uses sudoku class for creating puzzle and solving" style="whiteSpace=wrap;html=1;aspect=fixed;" parent="1" vertex="1">
                    <mxGeometry x="160" y="600" width="80" height="80" as="geometry"/>
                </mxCell>
                <mxCell id="8" value="puzzle.cpp" style="whiteSpace=wrap;html=1;aspect=fixed;" parent="1" vertex="1">
                    <mxGeometry x="470" y="410" width="80" height="80" as="geometry"/>
                </mxCell>
                <mxCell id="9" value="sudoku.cpp" style="whiteSpace=wrap;html=1;aspect=fixed;" parent="1" vertex="1">
                    <mxGeometry x="470" y="160" width="80" height="80" as="geometry"/>
                </mxCell>
                <mxCell id="19" style="edgeStyle=orthogonalEdgeStyle;rounded=0;orthogonalLoop=1;jettySize=auto;html=1;entryX=0;entryY=0.5;entryDx=0;entryDy=0;" parent="1" source="17" target="4" edge="1">
                    <mxGeometry relative="1" as="geometry">
                        <Array as="points">
                            <mxPoint x="280" y="150"/>
                            <mxPoint x="280" y="200"/>
                        </Array>
                    </mxGeometry>
                </mxCell>
                <mxCell id="17" value="sudoku game class" style="whiteSpace=wrap;html=1;aspect=fixed;" parent="1" vertex="1">
                    <mxGeometry x="160" y="110" width="80" height="80" as="geometry"/>
                </mxCell>
                <mxCell id="20" style="edgeStyle=orthogonalEdgeStyle;rounded=0;orthogonalLoop=1;jettySize=auto;html=1;" parent="1" source="18" edge="1">
                    <mxGeometry relative="1" as="geometry">
                        <mxPoint x="310" y="200" as="targetPoint"/>
                        <Array as="points">
                            <mxPoint x="270" y="270"/>
                            <mxPoint x="270" y="200"/>
                        </Array>
                    </mxGeometry>
                </mxCell>
                <mxCell id="18" value="has functions to manipulate puzzle (input from user)" style="whiteSpace=wrap;html=1;aspect=fixed;" parent="1" vertex="1">
                    <mxGeometry x="160" y="230" width="80" height="80" as="geometry"/>
                </mxCell>
                <mxCell id="22" style="edgeStyle=orthogonalEdgeStyle;rounded=0;orthogonalLoop=1;jettySize=auto;html=1;entryX=0;entryY=0.5;entryDx=0;entryDy=0;" parent="1" source="21" target="18" edge="1">
                    <mxGeometry relative="1" as="geometry"/>
                </mxCell>
                <mxCell id="21" value="add num, delete num" style="whiteSpace=wrap;html=1;aspect=fixed;" parent="1" vertex="1">
                    <mxGeometry y="190" width="80" height="80" as="geometry"/>
                </mxCell>
                <mxCell id="lX_xOKlXV__iZ2ej5jku-27" style="edgeStyle=orthogonalEdgeStyle;rounded=0;orthogonalLoop=1;jettySize=auto;html=1;entryX=1;entryY=0;entryDx=0;entryDy=0;" parent="1" source="lX_xOKlXV__iZ2ej5jku-24" target="3" edge="1">
                    <mxGeometry relative="1" as="geometry"/>
                </mxCell>
                <mxCell id="lX_xOKlXV__iZ2ej5jku-24" value="parent class" style="ellipse;shape=cloud;whiteSpace=wrap;html=1;" parent="1" vertex="1">
                    <mxGeometry x="370" y="310" width="120" height="80" as="geometry"/>
                </mxCell>
                <mxCell id="lX_xOKlXV__iZ2ej5jku-29" style="edgeStyle=orthogonalEdgeStyle;rounded=0;orthogonalLoop=1;jettySize=auto;html=1;entryX=1;entryY=0;entryDx=0;entryDy=0;" parent="1" source="lX_xOKlXV__iZ2ej5jku-28" target="4" edge="1">
                    <mxGeometry relative="1" as="geometry"/>
                </mxCell>
                <mxCell id="lX_xOKlXV__iZ2ej5jku-28" value="child class" style="ellipse;shape=cloud;whiteSpace=wrap;html=1;" parent="1" vertex="1">
                    <mxGeometry x="380" y="40" width="120" height="80" as="geometry"/>
                </mxCell>
            </root>
        </mxGraphModel>
    </diagram>
    <diagram id="B_cV_x29ijaUib3_E7xu" name="puzzle.cpp">
        <mxGraphModel dx="464" dy="698" grid="1" gridSize="10" guides="1" tooltips="1" connect="1" arrows="1" fold="1" page="1" pageScale="1" pageWidth="850" pageHeight="1100" math="0" shadow="0">
            <root>
                <mxCell id="SRuLFoGNKdcsTnD6NQYK-0"/>
                <mxCell id="SRuLFoGNKdcsTnD6NQYK-1" parent="SRuLFoGNKdcsTnD6NQYK-0"/>
                <mxCell id="SRuLFoGNKdcsTnD6NQYK-3" value="Puzzle class:&lt;br&gt;&lt;br&gt;Attributes:&lt;br&gt;puzzle:&lt;br&gt;&amp;nbsp;- 2d array that holds 9 ints in each array&lt;br&gt;&lt;br&gt;Methods:&lt;br&gt;&lt;br&gt;int*&amp;nbsp;getRow(int row)&lt;br&gt;&amp;nbsp;- returns an array that is the reference to the corresponding array in puzzle&lt;br&gt;&lt;br&gt;int* getCol(int col)&lt;br&gt;&amp;nbsp;- returns an array that has pointers to each corresponding unit in puzzle with respect to specified col&lt;br&gt;&lt;br&gt;int*&amp;nbsp;getCage(int cage)&lt;br&gt;&amp;nbsp;- returns an array of pointers to each corresponding location in puzzle&amp;nbsp;&lt;br&gt;&lt;br&gt;bool checkCages()&lt;br&gt;&amp;nbsp;- returns true if cages are valid&lt;br&gt;&lt;br&gt;bool checkRows()&lt;br&gt;&amp;nbsp;- returns true if rows are valid&lt;br&gt;&lt;br&gt;bool checkCols()&lt;br&gt;&amp;nbsp;- returns true if columns are valid&lt;br&gt;&lt;br&gt;bool checkValid()&lt;br&gt;&amp;nbsp;- returns true if rows, columns, and cages are valid.&lt;br&gt;&lt;br&gt;int*&amp;nbsp;createPuzzle()&lt;br&gt;&amp;nbsp;- creates a new sukodu puzzle that is already solved" style="text;html=1;strokeColor=none;fillColor=none;align=left;verticalAlign=middle;whiteSpace=wrap;rounded=0;" parent="SRuLFoGNKdcsTnD6NQYK-1" vertex="1">
                    <mxGeometry y="570" width="160" height="940" as="geometry"/>
                </mxCell>
                <mxCell id="SRuLFoGNKdcsTnD6NQYK-4" value="" style="shape=table;html=1;whiteSpace=wrap;startSize=0;container=1;collapsible=0;childLayout=tableLayout;" parent="SRuLFoGNKdcsTnD6NQYK-1" vertex="1">
                    <mxGeometry x="200" y="520" width="180" height="120" as="geometry"/>
                </mxCell>
                <mxCell id="SRuLFoGNKdcsTnD6NQYK-5" value="" style="shape=partialRectangle;html=1;whiteSpace=wrap;collapsible=0;dropTarget=0;pointerEvents=0;fillColor=none;top=0;left=0;bottom=0;right=0;points=[[0,0.5],[1,0.5]];portConstraint=eastwest;" parent="SRuLFoGNKdcsTnD6NQYK-4" vertex="1">
                    <mxGeometry width="180" height="40" as="geometry"/>
                </mxCell>
                <mxCell id="SRuLFoGNKdcsTnD6NQYK-6" value="0" style="shape=partialRectangle;html=1;whiteSpace=wrap;connectable=0;fillColor=none;top=0;left=0;bottom=0;right=0;overflow=hidden;" parent="SRuLFoGNKdcsTnD6NQYK-5" vertex="1">
                    <mxGeometry width="60" height="40" as="geometry"/>
                </mxCell>
                <mxCell id="SRuLFoGNKdcsTnD6NQYK-7" value="1" style="shape=partialRectangle;html=1;whiteSpace=wrap;connectable=0;fillColor=none;top=0;left=0;bottom=0;right=0;overflow=hidden;" parent="SRuLFoGNKdcsTnD6NQYK-5" vertex="1">
                    <mxGeometry x="60" width="60" height="40" as="geometry"/>
                </mxCell>
                <mxCell id="SRuLFoGNKdcsTnD6NQYK-8" value="2" style="shape=partialRectangle;html=1;whiteSpace=wrap;connectable=0;fillColor=none;top=0;left=0;bottom=0;right=0;overflow=hidden;" parent="SRuLFoGNKdcsTnD6NQYK-5" vertex="1">
                    <mxGeometry x="120" width="60" height="40" as="geometry"/>
                </mxCell>
                <mxCell id="SRuLFoGNKdcsTnD6NQYK-9" value="" style="shape=partialRectangle;html=1;whiteSpace=wrap;collapsible=0;dropTarget=0;pointerEvents=0;fillColor=none;top=0;left=0;bottom=0;right=0;points=[[0,0.5],[1,0.5]];portConstraint=eastwest;" parent="SRuLFoGNKdcsTnD6NQYK-4" vertex="1">
                    <mxGeometry y="40" width="180" height="40" as="geometry"/>
                </mxCell>
                <mxCell id="SRuLFoGNKdcsTnD6NQYK-10" value="1" style="shape=partialRectangle;html=1;whiteSpace=wrap;connectable=0;fillColor=none;top=0;left=0;bottom=0;right=0;overflow=hidden;" parent="SRuLFoGNKdcsTnD6NQYK-9" vertex="1">
                    <mxGeometry width="60" height="40" as="geometry"/>
                </mxCell>
                <mxCell id="SRuLFoGNKdcsTnD6NQYK-11" value="0" style="shape=partialRectangle;html=1;whiteSpace=wrap;connectable=0;fillColor=none;top=0;left=0;bottom=0;right=0;overflow=hidden;" parent="SRuLFoGNKdcsTnD6NQYK-9" vertex="1">
                    <mxGeometry x="60" width="60" height="40" as="geometry"/>
                </mxCell>
                <mxCell id="SRuLFoGNKdcsTnD6NQYK-12" value="" style="shape=partialRectangle;html=1;whiteSpace=wrap;connectable=0;fillColor=none;top=0;left=0;bottom=0;right=0;overflow=hidden;" parent="SRuLFoGNKdcsTnD6NQYK-9" vertex="1">
                    <mxGeometry x="120" width="60" height="40" as="geometry"/>
                </mxCell>
                <mxCell id="SRuLFoGNKdcsTnD6NQYK-13" value="" style="shape=partialRectangle;html=1;whiteSpace=wrap;collapsible=0;dropTarget=0;pointerEvents=0;fillColor=none;top=0;left=0;bottom=0;right=0;points=[[0,0.5],[1,0.5]];portConstraint=eastwest;" parent="SRuLFoGNKdcsTnD6NQYK-4" vertex="1">
                    <mxGeometry y="80" width="180" height="40" as="geometry"/>
                </mxCell>
                <mxCell id="SRuLFoGNKdcsTnD6NQYK-14" value="2" style="shape=partialRectangle;html=1;whiteSpace=wrap;connectable=0;fillColor=none;top=0;left=0;bottom=0;right=0;overflow=hidden;" parent="SRuLFoGNKdcsTnD6NQYK-13" vertex="1">
                    <mxGeometry width="60" height="40" as="geometry"/>
                </mxCell>
                <mxCell id="SRuLFoGNKdcsTnD6NQYK-15" value="" style="shape=partialRectangle;html=1;whiteSpace=wrap;connectable=0;fillColor=none;top=0;left=0;bottom=0;right=0;overflow=hidden;" parent="SRuLFoGNKdcsTnD6NQYK-13" vertex="1">
                    <mxGeometry x="60" width="60" height="40" as="geometry"/>
                </mxCell>
                <mxCell id="SRuLFoGNKdcsTnD6NQYK-16" value="" style="shape=partialRectangle;html=1;whiteSpace=wrap;connectable=0;fillColor=none;top=0;left=0;bottom=0;right=0;overflow=hidden;" parent="SRuLFoGNKdcsTnD6NQYK-13" vertex="1">
                    <mxGeometry x="120" width="60" height="40" as="geometry"/>
                </mxCell>
                <mxCell id="SRuLFoGNKdcsTnD6NQYK-17" value="" style="shape=table;html=1;whiteSpace=wrap;startSize=0;container=1;collapsible=0;childLayout=tableLayout;" parent="SRuLFoGNKdcsTnD6NQYK-1" vertex="1">
                    <mxGeometry x="600" y="800" width="180" height="120" as="geometry"/>
                </mxCell>
                <mxCell id="SRuLFoGNKdcsTnD6NQYK-18" value="" style="shape=partialRectangle;html=1;whiteSpace=wrap;collapsible=0;dropTarget=0;pointerEvents=0;fillColor=none;top=0;left=0;bottom=0;right=0;points=[[0,0.5],[1,0.5]];portConstraint=eastwest;" parent="SRuLFoGNKdcsTnD6NQYK-17" vertex="1">
                    <mxGeometry width="180" height="40" as="geometry"/>
                </mxCell>
                <mxCell id="SRuLFoGNKdcsTnD6NQYK-19" value="" style="shape=partialRectangle;html=1;whiteSpace=wrap;connectable=0;fillColor=none;top=0;left=0;bottom=0;right=0;overflow=hidden;" parent="SRuLFoGNKdcsTnD6NQYK-18" vertex="1">
                    <mxGeometry width="60" height="40" as="geometry"/>
                </mxCell>
                <mxCell id="SRuLFoGNKdcsTnD6NQYK-20" value="" style="shape=partialRectangle;html=1;whiteSpace=wrap;connectable=0;fillColor=none;top=0;left=0;bottom=0;right=0;overflow=hidden;" parent="SRuLFoGNKdcsTnD6NQYK-18" vertex="1">
                    <mxGeometry x="60" width="60" height="40" as="geometry"/>
                </mxCell>
                <mxCell id="SRuLFoGNKdcsTnD6NQYK-21" value="" style="shape=partialRectangle;html=1;whiteSpace=wrap;connectable=0;fillColor=none;top=0;left=0;bottom=0;right=0;overflow=hidden;" parent="SRuLFoGNKdcsTnD6NQYK-18" vertex="1">
                    <mxGeometry x="120" width="60" height="40" as="geometry"/>
                </mxCell>
                <mxCell id="SRuLFoGNKdcsTnD6NQYK-22" value="" style="shape=partialRectangle;html=1;whiteSpace=wrap;collapsible=0;dropTarget=0;pointerEvents=0;fillColor=none;top=0;left=0;bottom=0;right=0;points=[[0,0.5],[1,0.5]];portConstraint=eastwest;" parent="SRuLFoGNKdcsTnD6NQYK-17" vertex="1">
                    <mxGeometry y="40" width="180" height="40" as="geometry"/>
                </mxCell>
                <mxCell id="SRuLFoGNKdcsTnD6NQYK-23" value="" style="shape=partialRectangle;html=1;whiteSpace=wrap;connectable=0;fillColor=none;top=0;left=0;bottom=0;right=0;overflow=hidden;" parent="SRuLFoGNKdcsTnD6NQYK-22" vertex="1">
                    <mxGeometry width="60" height="40" as="geometry"/>
                </mxCell>
                <mxCell id="SRuLFoGNKdcsTnD6NQYK-24" value="8" style="shape=partialRectangle;html=1;whiteSpace=wrap;connectable=0;fillColor=none;top=0;left=0;bottom=0;right=0;overflow=hidden;" parent="SRuLFoGNKdcsTnD6NQYK-22" vertex="1">
                    <mxGeometry x="60" width="60" height="40" as="geometry"/>
                </mxCell>
                <mxCell id="SRuLFoGNKdcsTnD6NQYK-25" value="" style="shape=partialRectangle;html=1;whiteSpace=wrap;connectable=0;fillColor=none;top=0;left=0;bottom=0;right=0;overflow=hidden;" parent="SRuLFoGNKdcsTnD6NQYK-22" vertex="1">
                    <mxGeometry x="120" width="60" height="40" as="geometry"/>
                </mxCell>
                <mxCell id="SRuLFoGNKdcsTnD6NQYK-26" value="" style="shape=partialRectangle;html=1;whiteSpace=wrap;collapsible=0;dropTarget=0;pointerEvents=0;fillColor=none;top=0;left=0;bottom=0;right=0;points=[[0,0.5],[1,0.5]];portConstraint=eastwest;" parent="SRuLFoGNKdcsTnD6NQYK-17" vertex="1">
                    <mxGeometry y="80" width="180" height="40" as="geometry"/>
                </mxCell>
                <mxCell id="SRuLFoGNKdcsTnD6NQYK-27" value="" style="shape=partialRectangle;html=1;whiteSpace=wrap;connectable=0;fillColor=none;top=0;left=0;bottom=0;right=0;overflow=hidden;" parent="SRuLFoGNKdcsTnD6NQYK-26" vertex="1">
                    <mxGeometry width="60" height="40" as="geometry"/>
                </mxCell>
                <mxCell id="SRuLFoGNKdcsTnD6NQYK-28" value="" style="shape=partialRectangle;html=1;whiteSpace=wrap;connectable=0;fillColor=none;top=0;left=0;bottom=0;right=0;overflow=hidden;" parent="SRuLFoGNKdcsTnD6NQYK-26" vertex="1">
                    <mxGeometry x="60" width="60" height="40" as="geometry"/>
                </mxCell>
                <mxCell id="SRuLFoGNKdcsTnD6NQYK-29" value="" style="shape=partialRectangle;html=1;whiteSpace=wrap;connectable=0;fillColor=none;top=0;left=0;bottom=0;right=0;overflow=hidden;" parent="SRuLFoGNKdcsTnD6NQYK-26" vertex="1">
                    <mxGeometry x="120" width="60" height="40" as="geometry"/>
                </mxCell>
                <mxCell id="SRuLFoGNKdcsTnD6NQYK-30" value="" style="shape=table;html=1;whiteSpace=wrap;startSize=0;container=1;collapsible=0;childLayout=tableLayout;" parent="SRuLFoGNKdcsTnD6NQYK-1" vertex="1">
                    <mxGeometry x="600" y="660" width="180" height="120" as="geometry"/>
                </mxCell>
                <mxCell id="SRuLFoGNKdcsTnD6NQYK-31" value="" style="shape=partialRectangle;html=1;whiteSpace=wrap;collapsible=0;dropTarget=0;pointerEvents=0;fillColor=none;top=0;left=0;bottom=0;right=0;points=[[0,0.5],[1,0.5]];portConstraint=eastwest;" parent="SRuLFoGNKdcsTnD6NQYK-30" vertex="1">
                    <mxGeometry width="180" height="40" as="geometry"/>
                </mxCell>
                <mxCell id="SRuLFoGNKdcsTnD6NQYK-32" value="" style="shape=partialRectangle;html=1;whiteSpace=wrap;connectable=0;fillColor=none;top=0;left=0;bottom=0;right=0;overflow=hidden;" parent="SRuLFoGNKdcsTnD6NQYK-31" vertex="1">
                    <mxGeometry width="60" height="40" as="geometry"/>
                </mxCell>
                <mxCell id="SRuLFoGNKdcsTnD6NQYK-33" value="" style="shape=partialRectangle;html=1;whiteSpace=wrap;connectable=0;fillColor=none;top=0;left=0;bottom=0;right=0;overflow=hidden;" parent="SRuLFoGNKdcsTnD6NQYK-31" vertex="1">
                    <mxGeometry x="60" width="60" height="40" as="geometry"/>
                </mxCell>
                <mxCell id="SRuLFoGNKdcsTnD6NQYK-34" value="" style="shape=partialRectangle;html=1;whiteSpace=wrap;connectable=0;fillColor=none;top=0;left=0;bottom=0;right=0;overflow=hidden;" parent="SRuLFoGNKdcsTnD6NQYK-31" vertex="1">
                    <mxGeometry x="120" width="60" height="40" as="geometry"/>
                </mxCell>
                <mxCell id="SRuLFoGNKdcsTnD6NQYK-35" value="" style="shape=partialRectangle;html=1;whiteSpace=wrap;collapsible=0;dropTarget=0;pointerEvents=0;fillColor=none;top=0;left=0;bottom=0;right=0;points=[[0,0.5],[1,0.5]];portConstraint=eastwest;" parent="SRuLFoGNKdcsTnD6NQYK-30" vertex="1">
                    <mxGeometry y="40" width="180" height="40" as="geometry"/>
                </mxCell>
                <mxCell id="SRuLFoGNKdcsTnD6NQYK-36" value="" style="shape=partialRectangle;html=1;whiteSpace=wrap;connectable=0;fillColor=none;top=0;left=0;bottom=0;right=0;overflow=hidden;" parent="SRuLFoGNKdcsTnD6NQYK-35" vertex="1">
                    <mxGeometry width="60" height="40" as="geometry"/>
                </mxCell>
                <mxCell id="SRuLFoGNKdcsTnD6NQYK-37" value="5" style="shape=partialRectangle;html=1;whiteSpace=wrap;connectable=0;fillColor=none;top=0;left=0;bottom=0;right=0;overflow=hidden;" parent="SRuLFoGNKdcsTnD6NQYK-35" vertex="1">
                    <mxGeometry x="60" width="60" height="40" as="geometry"/>
                </mxCell>
                <mxCell id="SRuLFoGNKdcsTnD6NQYK-38" value="" style="shape=partialRectangle;html=1;whiteSpace=wrap;connectable=0;fillColor=none;top=0;left=0;bottom=0;right=0;overflow=hidden;" parent="SRuLFoGNKdcsTnD6NQYK-35" vertex="1">
                    <mxGeometry x="120" width="60" height="40" as="geometry"/>
                </mxCell>
                <mxCell id="SRuLFoGNKdcsTnD6NQYK-39" value="" style="shape=partialRectangle;html=1;whiteSpace=wrap;collapsible=0;dropTarget=0;pointerEvents=0;fillColor=none;top=0;left=0;bottom=0;right=0;points=[[0,0.5],[1,0.5]];portConstraint=eastwest;" parent="SRuLFoGNKdcsTnD6NQYK-30" vertex="1">
                    <mxGeometry y="80" width="180" height="40" as="geometry"/>
                </mxCell>
                <mxCell id="SRuLFoGNKdcsTnD6NQYK-40" value="" style="shape=partialRectangle;html=1;whiteSpace=wrap;connectable=0;fillColor=none;top=0;left=0;bottom=0;right=0;overflow=hidden;" parent="SRuLFoGNKdcsTnD6NQYK-39" vertex="1">
                    <mxGeometry width="60" height="40" as="geometry"/>
                </mxCell>
                <mxCell id="SRuLFoGNKdcsTnD6NQYK-41" value="" style="shape=partialRectangle;html=1;whiteSpace=wrap;connectable=0;fillColor=none;top=0;left=0;bottom=0;right=0;overflow=hidden;" parent="SRuLFoGNKdcsTnD6NQYK-39" vertex="1">
                    <mxGeometry x="60" width="60" height="40" as="geometry"/>
                </mxCell>
                <mxCell id="SRuLFoGNKdcsTnD6NQYK-42" value="" style="shape=partialRectangle;html=1;whiteSpace=wrap;connectable=0;fillColor=none;top=0;left=0;bottom=0;right=0;overflow=hidden;" parent="SRuLFoGNKdcsTnD6NQYK-39" vertex="1">
                    <mxGeometry x="120" width="60" height="40" as="geometry"/>
                </mxCell>
                <mxCell id="SRuLFoGNKdcsTnD6NQYK-43" value="" style="shape=table;html=1;whiteSpace=wrap;startSize=0;container=1;collapsible=0;childLayout=tableLayout;" parent="SRuLFoGNKdcsTnD6NQYK-1" vertex="1">
                    <mxGeometry x="600" y="520" width="180" height="120" as="geometry"/>
                </mxCell>
                <mxCell id="SRuLFoGNKdcsTnD6NQYK-44" value="" style="shape=partialRectangle;html=1;whiteSpace=wrap;collapsible=0;dropTarget=0;pointerEvents=0;fillColor=none;top=0;left=0;bottom=0;right=0;points=[[0,0.5],[1,0.5]];portConstraint=eastwest;" parent="SRuLFoGNKdcsTnD6NQYK-43" vertex="1">
                    <mxGeometry width="180" height="40" as="geometry"/>
                </mxCell>
                <mxCell id="SRuLFoGNKdcsTnD6NQYK-45" value="6" style="shape=partialRectangle;html=1;whiteSpace=wrap;connectable=0;fillColor=none;top=0;left=0;bottom=0;right=0;overflow=hidden;" parent="SRuLFoGNKdcsTnD6NQYK-44" vertex="1">
                    <mxGeometry width="60" height="40" as="geometry"/>
                </mxCell>
                <mxCell id="SRuLFoGNKdcsTnD6NQYK-46" value="7" style="shape=partialRectangle;html=1;whiteSpace=wrap;connectable=0;fillColor=none;top=0;left=0;bottom=0;right=0;overflow=hidden;" parent="SRuLFoGNKdcsTnD6NQYK-44" vertex="1">
                    <mxGeometry x="60" width="60" height="40" as="geometry"/>
                </mxCell>
                <mxCell id="SRuLFoGNKdcsTnD6NQYK-47" value="8" style="shape=partialRectangle;html=1;whiteSpace=wrap;connectable=0;fillColor=none;top=0;left=0;bottom=0;right=0;overflow=hidden;" parent="SRuLFoGNKdcsTnD6NQYK-44" vertex="1">
                    <mxGeometry x="120" width="60" height="40" as="geometry"/>
                </mxCell>
                <mxCell id="SRuLFoGNKdcsTnD6NQYK-48" value="" style="shape=partialRectangle;html=1;whiteSpace=wrap;collapsible=0;dropTarget=0;pointerEvents=0;fillColor=none;top=0;left=0;bottom=0;right=0;points=[[0,0.5],[1,0.5]];portConstraint=eastwest;" parent="SRuLFoGNKdcsTnD6NQYK-43" vertex="1">
                    <mxGeometry y="40" width="180" height="40" as="geometry"/>
                </mxCell>
                <mxCell id="SRuLFoGNKdcsTnD6NQYK-49" value="" style="shape=partialRectangle;html=1;whiteSpace=wrap;connectable=0;fillColor=none;top=0;left=0;bottom=0;right=0;overflow=hidden;" parent="SRuLFoGNKdcsTnD6NQYK-48" vertex="1">
                    <mxGeometry width="60" height="40" as="geometry"/>
                </mxCell>
                <mxCell id="SRuLFoGNKdcsTnD6NQYK-50" value="2" style="shape=partialRectangle;html=1;whiteSpace=wrap;connectable=0;fillColor=none;top=0;left=0;bottom=0;right=0;overflow=hidden;" parent="SRuLFoGNKdcsTnD6NQYK-48" vertex="1">
                    <mxGeometry x="60" width="60" height="40" as="geometry"/>
                </mxCell>
                <mxCell id="SRuLFoGNKdcsTnD6NQYK-51" value="" style="shape=partialRectangle;html=1;whiteSpace=wrap;connectable=0;fillColor=none;top=0;left=0;bottom=0;right=0;overflow=hidden;" parent="SRuLFoGNKdcsTnD6NQYK-48" vertex="1">
                    <mxGeometry x="120" width="60" height="40" as="geometry"/>
                </mxCell>
                <mxCell id="SRuLFoGNKdcsTnD6NQYK-52" value="" style="shape=partialRectangle;html=1;whiteSpace=wrap;collapsible=0;dropTarget=0;pointerEvents=0;fillColor=none;top=0;left=0;bottom=0;right=0;points=[[0,0.5],[1,0.5]];portConstraint=eastwest;" parent="SRuLFoGNKdcsTnD6NQYK-43" vertex="1">
                    <mxGeometry y="80" width="180" height="40" as="geometry"/>
                </mxCell>
                <mxCell id="SRuLFoGNKdcsTnD6NQYK-53" value="" style="shape=partialRectangle;html=1;whiteSpace=wrap;connectable=0;fillColor=none;top=0;left=0;bottom=0;right=0;overflow=hidden;" parent="SRuLFoGNKdcsTnD6NQYK-52" vertex="1">
                    <mxGeometry width="60" height="40" as="geometry"/>
                </mxCell>
                <mxCell id="SRuLFoGNKdcsTnD6NQYK-54" value="" style="shape=partialRectangle;html=1;whiteSpace=wrap;connectable=0;fillColor=none;top=0;left=0;bottom=0;right=0;overflow=hidden;" parent="SRuLFoGNKdcsTnD6NQYK-52" vertex="1">
                    <mxGeometry x="60" width="60" height="40" as="geometry"/>
                </mxCell>
                <mxCell id="SRuLFoGNKdcsTnD6NQYK-55" value="" style="shape=partialRectangle;html=1;whiteSpace=wrap;connectable=0;fillColor=none;top=0;left=0;bottom=0;right=0;overflow=hidden;" parent="SRuLFoGNKdcsTnD6NQYK-52" vertex="1">
                    <mxGeometry x="120" width="60" height="40" as="geometry"/>
                </mxCell>
                <mxCell id="SRuLFoGNKdcsTnD6NQYK-56" value="" style="shape=table;html=1;whiteSpace=wrap;startSize=0;container=1;collapsible=0;childLayout=tableLayout;" parent="SRuLFoGNKdcsTnD6NQYK-1" vertex="1">
                    <mxGeometry x="200" y="800" width="180" height="120" as="geometry"/>
                </mxCell>
                <mxCell id="SRuLFoGNKdcsTnD6NQYK-57" value="" style="shape=partialRectangle;html=1;whiteSpace=wrap;collapsible=0;dropTarget=0;pointerEvents=0;fillColor=none;top=0;left=0;bottom=0;right=0;points=[[0,0.5],[1,0.5]];portConstraint=eastwest;" parent="SRuLFoGNKdcsTnD6NQYK-56" vertex="1">
                    <mxGeometry width="180" height="40" as="geometry"/>
                </mxCell>
                <mxCell id="SRuLFoGNKdcsTnD6NQYK-58" value="6" style="shape=partialRectangle;html=1;whiteSpace=wrap;connectable=0;fillColor=none;top=0;left=0;bottom=0;right=0;overflow=hidden;" parent="SRuLFoGNKdcsTnD6NQYK-57" vertex="1">
                    <mxGeometry width="60" height="40" as="geometry"/>
                </mxCell>
                <mxCell id="SRuLFoGNKdcsTnD6NQYK-59" value="" style="shape=partialRectangle;html=1;whiteSpace=wrap;connectable=0;fillColor=none;top=0;left=0;bottom=0;right=0;overflow=hidden;" parent="SRuLFoGNKdcsTnD6NQYK-57" vertex="1">
                    <mxGeometry x="60" width="60" height="40" as="geometry"/>
                </mxCell>
                <mxCell id="SRuLFoGNKdcsTnD6NQYK-60" value="" style="shape=partialRectangle;html=1;whiteSpace=wrap;connectable=0;fillColor=none;top=0;left=0;bottom=0;right=0;overflow=hidden;" parent="SRuLFoGNKdcsTnD6NQYK-57" vertex="1">
                    <mxGeometry x="120" width="60" height="40" as="geometry"/>
                </mxCell>
                <mxCell id="SRuLFoGNKdcsTnD6NQYK-61" value="" style="shape=partialRectangle;html=1;whiteSpace=wrap;collapsible=0;dropTarget=0;pointerEvents=0;fillColor=none;top=0;left=0;bottom=0;right=0;points=[[0,0.5],[1,0.5]];portConstraint=eastwest;" parent="SRuLFoGNKdcsTnD6NQYK-56" vertex="1">
                    <mxGeometry y="40" width="180" height="40" as="geometry"/>
                </mxCell>
                <mxCell id="SRuLFoGNKdcsTnD6NQYK-62" value="7" style="shape=partialRectangle;html=1;whiteSpace=wrap;connectable=0;fillColor=none;top=0;left=0;bottom=0;right=0;overflow=hidden;" parent="SRuLFoGNKdcsTnD6NQYK-61" vertex="1">
                    <mxGeometry width="60" height="40" as="geometry"/>
                </mxCell>
                <mxCell id="SRuLFoGNKdcsTnD6NQYK-63" value="6" style="shape=partialRectangle;html=1;whiteSpace=wrap;connectable=0;fillColor=none;top=0;left=0;bottom=0;right=0;overflow=hidden;" parent="SRuLFoGNKdcsTnD6NQYK-61" vertex="1">
                    <mxGeometry x="60" width="60" height="40" as="geometry"/>
                </mxCell>
                <mxCell id="SRuLFoGNKdcsTnD6NQYK-64" value="" style="shape=partialRectangle;html=1;whiteSpace=wrap;connectable=0;fillColor=none;top=0;left=0;bottom=0;right=0;overflow=hidden;" parent="SRuLFoGNKdcsTnD6NQYK-61" vertex="1">
                    <mxGeometry x="120" width="60" height="40" as="geometry"/>
                </mxCell>
                <mxCell id="SRuLFoGNKdcsTnD6NQYK-65" value="" style="shape=partialRectangle;html=1;whiteSpace=wrap;collapsible=0;dropTarget=0;pointerEvents=0;fillColor=none;top=0;left=0;bottom=0;right=0;points=[[0,0.5],[1,0.5]];portConstraint=eastwest;" parent="SRuLFoGNKdcsTnD6NQYK-56" vertex="1">
                    <mxGeometry y="80" width="180" height="40" as="geometry"/>
                </mxCell>
                <mxCell id="SRuLFoGNKdcsTnD6NQYK-66" value="8" style="shape=partialRectangle;html=1;whiteSpace=wrap;connectable=0;fillColor=none;top=0;left=0;bottom=0;right=0;overflow=hidden;" parent="SRuLFoGNKdcsTnD6NQYK-65" vertex="1">
                    <mxGeometry width="60" height="40" as="geometry"/>
                </mxCell>
                <mxCell id="SRuLFoGNKdcsTnD6NQYK-67" value="" style="shape=partialRectangle;html=1;whiteSpace=wrap;connectable=0;fillColor=none;top=0;left=0;bottom=0;right=0;overflow=hidden;" parent="SRuLFoGNKdcsTnD6NQYK-65" vertex="1">
                    <mxGeometry x="60" width="60" height="40" as="geometry"/>
                </mxCell>
                <mxCell id="SRuLFoGNKdcsTnD6NQYK-68" value="" style="shape=partialRectangle;html=1;whiteSpace=wrap;connectable=0;fillColor=none;top=0;left=0;bottom=0;right=0;overflow=hidden;" parent="SRuLFoGNKdcsTnD6NQYK-65" vertex="1">
                    <mxGeometry x="120" width="60" height="40" as="geometry"/>
                </mxCell>
                <mxCell id="SRuLFoGNKdcsTnD6NQYK-69" value="" style="shape=table;html=1;whiteSpace=wrap;startSize=0;container=1;collapsible=0;childLayout=tableLayout;" parent="SRuLFoGNKdcsTnD6NQYK-1" vertex="1">
                    <mxGeometry x="400" y="800" width="180" height="120" as="geometry"/>
                </mxCell>
                <mxCell id="SRuLFoGNKdcsTnD6NQYK-70" value="" style="shape=partialRectangle;html=1;whiteSpace=wrap;collapsible=0;dropTarget=0;pointerEvents=0;fillColor=none;top=0;left=0;bottom=0;right=0;points=[[0,0.5],[1,0.5]];portConstraint=eastwest;" parent="SRuLFoGNKdcsTnD6NQYK-69" vertex="1">
                    <mxGeometry width="180" height="40" as="geometry"/>
                </mxCell>
                <mxCell id="SRuLFoGNKdcsTnD6NQYK-71" value="" style="shape=partialRectangle;html=1;whiteSpace=wrap;connectable=0;fillColor=none;top=0;left=0;bottom=0;right=0;overflow=hidden;" parent="SRuLFoGNKdcsTnD6NQYK-70" vertex="1">
                    <mxGeometry width="60" height="40" as="geometry"/>
                </mxCell>
                <mxCell id="SRuLFoGNKdcsTnD6NQYK-72" value="" style="shape=partialRectangle;html=1;whiteSpace=wrap;connectable=0;fillColor=none;top=0;left=0;bottom=0;right=0;overflow=hidden;" parent="SRuLFoGNKdcsTnD6NQYK-70" vertex="1">
                    <mxGeometry x="60" width="60" height="40" as="geometry"/>
                </mxCell>
                <mxCell id="SRuLFoGNKdcsTnD6NQYK-73" value="" style="shape=partialRectangle;html=1;whiteSpace=wrap;connectable=0;fillColor=none;top=0;left=0;bottom=0;right=0;overflow=hidden;" parent="SRuLFoGNKdcsTnD6NQYK-70" vertex="1">
                    <mxGeometry x="120" width="60" height="40" as="geometry"/>
                </mxCell>
                <mxCell id="SRuLFoGNKdcsTnD6NQYK-74" value="" style="shape=partialRectangle;html=1;whiteSpace=wrap;collapsible=0;dropTarget=0;pointerEvents=0;fillColor=none;top=0;left=0;bottom=0;right=0;points=[[0,0.5],[1,0.5]];portConstraint=eastwest;" parent="SRuLFoGNKdcsTnD6NQYK-69" vertex="1">
                    <mxGeometry y="40" width="180" height="40" as="geometry"/>
                </mxCell>
                <mxCell id="SRuLFoGNKdcsTnD6NQYK-75" value="" style="shape=partialRectangle;html=1;whiteSpace=wrap;connectable=0;fillColor=none;top=0;left=0;bottom=0;right=0;overflow=hidden;" parent="SRuLFoGNKdcsTnD6NQYK-74" vertex="1">
                    <mxGeometry width="60" height="40" as="geometry"/>
                </mxCell>
                <mxCell id="SRuLFoGNKdcsTnD6NQYK-76" value="7" style="shape=partialRectangle;html=1;whiteSpace=wrap;connectable=0;fillColor=none;top=0;left=0;bottom=0;right=0;overflow=hidden;" parent="SRuLFoGNKdcsTnD6NQYK-74" vertex="1">
                    <mxGeometry x="60" width="60" height="40" as="geometry"/>
                </mxCell>
                <mxCell id="SRuLFoGNKdcsTnD6NQYK-77" value="" style="shape=partialRectangle;html=1;whiteSpace=wrap;connectable=0;fillColor=none;top=0;left=0;bottom=0;right=0;overflow=hidden;" parent="SRuLFoGNKdcsTnD6NQYK-74" vertex="1">
                    <mxGeometry x="120" width="60" height="40" as="geometry"/>
                </mxCell>
                <mxCell id="SRuLFoGNKdcsTnD6NQYK-78" value="" style="shape=partialRectangle;html=1;whiteSpace=wrap;collapsible=0;dropTarget=0;pointerEvents=0;fillColor=none;top=0;left=0;bottom=0;right=0;points=[[0,0.5],[1,0.5]];portConstraint=eastwest;" parent="SRuLFoGNKdcsTnD6NQYK-69" vertex="1">
                    <mxGeometry y="80" width="180" height="40" as="geometry"/>
                </mxCell>
                <mxCell id="SRuLFoGNKdcsTnD6NQYK-79" value="" style="shape=partialRectangle;html=1;whiteSpace=wrap;connectable=0;fillColor=none;top=0;left=0;bottom=0;right=0;overflow=hidden;" parent="SRuLFoGNKdcsTnD6NQYK-78" vertex="1">
                    <mxGeometry width="60" height="40" as="geometry"/>
                </mxCell>
                <mxCell id="SRuLFoGNKdcsTnD6NQYK-80" value="" style="shape=partialRectangle;html=1;whiteSpace=wrap;connectable=0;fillColor=none;top=0;left=0;bottom=0;right=0;overflow=hidden;" parent="SRuLFoGNKdcsTnD6NQYK-78" vertex="1">
                    <mxGeometry x="60" width="60" height="40" as="geometry"/>
                </mxCell>
                <mxCell id="SRuLFoGNKdcsTnD6NQYK-81" value="" style="shape=partialRectangle;html=1;whiteSpace=wrap;connectable=0;fillColor=none;top=0;left=0;bottom=0;right=0;overflow=hidden;" parent="SRuLFoGNKdcsTnD6NQYK-78" vertex="1">
                    <mxGeometry x="120" width="60" height="40" as="geometry"/>
                </mxCell>
                <mxCell id="SRuLFoGNKdcsTnD6NQYK-82" value="" style="shape=table;html=1;whiteSpace=wrap;startSize=0;container=1;collapsible=0;childLayout=tableLayout;" parent="SRuLFoGNKdcsTnD6NQYK-1" vertex="1">
                    <mxGeometry x="200" y="660" width="180" height="120" as="geometry"/>
                </mxCell>
                <mxCell id="SRuLFoGNKdcsTnD6NQYK-83" value="" style="shape=partialRectangle;html=1;whiteSpace=wrap;collapsible=0;dropTarget=0;pointerEvents=0;fillColor=none;top=0;left=0;bottom=0;right=0;points=[[0,0.5],[1,0.5]];portConstraint=eastwest;" parent="SRuLFoGNKdcsTnD6NQYK-82" vertex="1">
                    <mxGeometry width="180" height="40" as="geometry"/>
                </mxCell>
                <mxCell id="SRuLFoGNKdcsTnD6NQYK-84" value="3" style="shape=partialRectangle;html=1;whiteSpace=wrap;connectable=0;fillColor=none;top=0;left=0;bottom=0;right=0;overflow=hidden;" parent="SRuLFoGNKdcsTnD6NQYK-83" vertex="1">
                    <mxGeometry width="60" height="40" as="geometry"/>
                </mxCell>
                <mxCell id="SRuLFoGNKdcsTnD6NQYK-85" value="" style="shape=partialRectangle;html=1;whiteSpace=wrap;connectable=0;fillColor=none;top=0;left=0;bottom=0;right=0;overflow=hidden;" parent="SRuLFoGNKdcsTnD6NQYK-83" vertex="1">
                    <mxGeometry x="60" width="60" height="40" as="geometry"/>
                </mxCell>
                <mxCell id="SRuLFoGNKdcsTnD6NQYK-86" value="" style="shape=partialRectangle;html=1;whiteSpace=wrap;connectable=0;fillColor=none;top=0;left=0;bottom=0;right=0;overflow=hidden;" parent="SRuLFoGNKdcsTnD6NQYK-83" vertex="1">
                    <mxGeometry x="120" width="60" height="40" as="geometry"/>
                </mxCell>
                <mxCell id="SRuLFoGNKdcsTnD6NQYK-87" value="" style="shape=partialRectangle;html=1;whiteSpace=wrap;collapsible=0;dropTarget=0;pointerEvents=0;fillColor=none;top=0;left=0;bottom=0;right=0;points=[[0,0.5],[1,0.5]];portConstraint=eastwest;" parent="SRuLFoGNKdcsTnD6NQYK-82" vertex="1">
                    <mxGeometry y="40" width="180" height="40" as="geometry"/>
                </mxCell>
                <mxCell id="SRuLFoGNKdcsTnD6NQYK-88" value="4" style="shape=partialRectangle;html=1;whiteSpace=wrap;connectable=0;fillColor=none;top=0;left=0;bottom=0;right=0;overflow=hidden;" parent="SRuLFoGNKdcsTnD6NQYK-87" vertex="1">
                    <mxGeometry width="60" height="40" as="geometry"/>
                </mxCell>
                <mxCell id="SRuLFoGNKdcsTnD6NQYK-89" value="3" style="shape=partialRectangle;html=1;whiteSpace=wrap;connectable=0;fillColor=none;top=0;left=0;bottom=0;right=0;overflow=hidden;" parent="SRuLFoGNKdcsTnD6NQYK-87" vertex="1">
                    <mxGeometry x="60" width="60" height="40" as="geometry"/>
                </mxCell>
                <mxCell id="SRuLFoGNKdcsTnD6NQYK-90" value="" style="shape=partialRectangle;html=1;whiteSpace=wrap;connectable=0;fillColor=none;top=0;left=0;bottom=0;right=0;overflow=hidden;" parent="SRuLFoGNKdcsTnD6NQYK-87" vertex="1">
                    <mxGeometry x="120" width="60" height="40" as="geometry"/>
                </mxCell>
                <mxCell id="SRuLFoGNKdcsTnD6NQYK-91" value="" style="shape=partialRectangle;html=1;whiteSpace=wrap;collapsible=0;dropTarget=0;pointerEvents=0;fillColor=none;top=0;left=0;bottom=0;right=0;points=[[0,0.5],[1,0.5]];portConstraint=eastwest;" parent="SRuLFoGNKdcsTnD6NQYK-82" vertex="1">
                    <mxGeometry y="80" width="180" height="40" as="geometry"/>
                </mxCell>
                <mxCell id="SRuLFoGNKdcsTnD6NQYK-92" value="5" style="shape=partialRectangle;html=1;whiteSpace=wrap;connectable=0;fillColor=none;top=0;left=0;bottom=0;right=0;overflow=hidden;" parent="SRuLFoGNKdcsTnD6NQYK-91" vertex="1">
                    <mxGeometry width="60" height="40" as="geometry"/>
                </mxCell>
                <mxCell id="SRuLFoGNKdcsTnD6NQYK-93" value="" style="shape=partialRectangle;html=1;whiteSpace=wrap;connectable=0;fillColor=none;top=0;left=0;bottom=0;right=0;overflow=hidden;" parent="SRuLFoGNKdcsTnD6NQYK-91" vertex="1">
                    <mxGeometry x="60" width="60" height="40" as="geometry"/>
                </mxCell>
                <mxCell id="SRuLFoGNKdcsTnD6NQYK-94" value="" style="shape=partialRectangle;html=1;whiteSpace=wrap;connectable=0;fillColor=none;top=0;left=0;bottom=0;right=0;overflow=hidden;" parent="SRuLFoGNKdcsTnD6NQYK-91" vertex="1">
                    <mxGeometry x="120" width="60" height="40" as="geometry"/>
                </mxCell>
                <mxCell id="SRuLFoGNKdcsTnD6NQYK-95" value="" style="shape=table;html=1;whiteSpace=wrap;startSize=0;container=1;collapsible=0;childLayout=tableLayout;" parent="SRuLFoGNKdcsTnD6NQYK-1" vertex="1">
                    <mxGeometry x="400" y="660" width="180" height="120" as="geometry"/>
                </mxCell>
                <mxCell id="SRuLFoGNKdcsTnD6NQYK-96" value="" style="shape=partialRectangle;html=1;whiteSpace=wrap;collapsible=0;dropTarget=0;pointerEvents=0;fillColor=none;top=0;left=0;bottom=0;right=0;points=[[0,0.5],[1,0.5]];portConstraint=eastwest;" parent="SRuLFoGNKdcsTnD6NQYK-95" vertex="1">
                    <mxGeometry width="180" height="40" as="geometry"/>
                </mxCell>
                <mxCell id="SRuLFoGNKdcsTnD6NQYK-97" value="" style="shape=partialRectangle;html=1;whiteSpace=wrap;connectable=0;fillColor=none;top=0;left=0;bottom=0;right=0;overflow=hidden;" parent="SRuLFoGNKdcsTnD6NQYK-96" vertex="1">
                    <mxGeometry width="60" height="40" as="geometry"/>
                </mxCell>
                <mxCell id="SRuLFoGNKdcsTnD6NQYK-98" value="" style="shape=partialRectangle;html=1;whiteSpace=wrap;connectable=0;fillColor=none;top=0;left=0;bottom=0;right=0;overflow=hidden;" parent="SRuLFoGNKdcsTnD6NQYK-96" vertex="1">
                    <mxGeometry x="60" width="60" height="40" as="geometry"/>
                </mxCell>
                <mxCell id="SRuLFoGNKdcsTnD6NQYK-99" value="" style="shape=partialRectangle;html=1;whiteSpace=wrap;connectable=0;fillColor=none;top=0;left=0;bottom=0;right=0;overflow=hidden;" parent="SRuLFoGNKdcsTnD6NQYK-96" vertex="1">
                    <mxGeometry x="120" width="60" height="40" as="geometry"/>
                </mxCell>
                <mxCell id="SRuLFoGNKdcsTnD6NQYK-100" value="" style="shape=partialRectangle;html=1;whiteSpace=wrap;collapsible=0;dropTarget=0;pointerEvents=0;fillColor=none;top=0;left=0;bottom=0;right=0;points=[[0,0.5],[1,0.5]];portConstraint=eastwest;" parent="SRuLFoGNKdcsTnD6NQYK-95" vertex="1">
                    <mxGeometry y="40" width="180" height="40" as="geometry"/>
                </mxCell>
                <mxCell id="SRuLFoGNKdcsTnD6NQYK-101" value="" style="shape=partialRectangle;html=1;whiteSpace=wrap;connectable=0;fillColor=none;top=0;left=0;bottom=0;right=0;overflow=hidden;" parent="SRuLFoGNKdcsTnD6NQYK-100" vertex="1">
                    <mxGeometry width="60" height="40" as="geometry"/>
                </mxCell>
                <mxCell id="SRuLFoGNKdcsTnD6NQYK-102" value="4" style="shape=partialRectangle;html=1;whiteSpace=wrap;connectable=0;fillColor=none;top=0;left=0;bottom=0;right=0;overflow=hidden;" parent="SRuLFoGNKdcsTnD6NQYK-100" vertex="1">
                    <mxGeometry x="60" width="60" height="40" as="geometry"/>
                </mxCell>
                <mxCell id="SRuLFoGNKdcsTnD6NQYK-103" value="" style="shape=partialRectangle;html=1;whiteSpace=wrap;connectable=0;fillColor=none;top=0;left=0;bottom=0;right=0;overflow=hidden;" parent="SRuLFoGNKdcsTnD6NQYK-100" vertex="1">
                    <mxGeometry x="120" width="60" height="40" as="geometry"/>
                </mxCell>
                <mxCell id="SRuLFoGNKdcsTnD6NQYK-104" value="" style="shape=partialRectangle;html=1;whiteSpace=wrap;collapsible=0;dropTarget=0;pointerEvents=0;fillColor=none;top=0;left=0;bottom=0;right=0;points=[[0,0.5],[1,0.5]];portConstraint=eastwest;" parent="SRuLFoGNKdcsTnD6NQYK-95" vertex="1">
                    <mxGeometry y="80" width="180" height="40" as="geometry"/>
                </mxCell>
                <mxCell id="SRuLFoGNKdcsTnD6NQYK-105" value="" style="shape=partialRectangle;html=1;whiteSpace=wrap;connectable=0;fillColor=none;top=0;left=0;bottom=0;right=0;overflow=hidden;" parent="SRuLFoGNKdcsTnD6NQYK-104" vertex="1">
                    <mxGeometry width="60" height="40" as="geometry"/>
                </mxCell>
                <mxCell id="SRuLFoGNKdcsTnD6NQYK-106" value="" style="shape=partialRectangle;html=1;whiteSpace=wrap;connectable=0;fillColor=none;top=0;left=0;bottom=0;right=0;overflow=hidden;" parent="SRuLFoGNKdcsTnD6NQYK-104" vertex="1">
                    <mxGeometry x="60" width="60" height="40" as="geometry"/>
                </mxCell>
                <mxCell id="SRuLFoGNKdcsTnD6NQYK-107" value="" style="shape=partialRectangle;html=1;whiteSpace=wrap;connectable=0;fillColor=none;top=0;left=0;bottom=0;right=0;overflow=hidden;" parent="SRuLFoGNKdcsTnD6NQYK-104" vertex="1">
                    <mxGeometry x="120" width="60" height="40" as="geometry"/>
                </mxCell>
                <mxCell id="SRuLFoGNKdcsTnD6NQYK-108" value="" style="shape=table;html=1;whiteSpace=wrap;startSize=0;container=1;collapsible=0;childLayout=tableLayout;" parent="SRuLFoGNKdcsTnD6NQYK-1" vertex="1">
                    <mxGeometry x="400" y="520" width="180" height="120" as="geometry"/>
                </mxCell>
                <mxCell id="SRuLFoGNKdcsTnD6NQYK-109" value="" style="shape=partialRectangle;html=1;whiteSpace=wrap;collapsible=0;dropTarget=0;pointerEvents=0;fillColor=none;top=0;left=0;bottom=0;right=0;points=[[0,0.5],[1,0.5]];portConstraint=eastwest;" parent="SRuLFoGNKdcsTnD6NQYK-108" vertex="1">
                    <mxGeometry width="180" height="40" as="geometry"/>
                </mxCell>
                <mxCell id="SRuLFoGNKdcsTnD6NQYK-110" value="3" style="shape=partialRectangle;html=1;whiteSpace=wrap;connectable=0;fillColor=none;top=0;left=0;bottom=0;right=0;overflow=hidden;" parent="SRuLFoGNKdcsTnD6NQYK-109" vertex="1">
                    <mxGeometry width="60" height="40" as="geometry"/>
                </mxCell>
                <mxCell id="SRuLFoGNKdcsTnD6NQYK-111" value="4" style="shape=partialRectangle;html=1;whiteSpace=wrap;connectable=0;fillColor=none;top=0;left=0;bottom=0;right=0;overflow=hidden;" parent="SRuLFoGNKdcsTnD6NQYK-109" vertex="1">
                    <mxGeometry x="60" width="60" height="40" as="geometry"/>
                </mxCell>
                <mxCell id="SRuLFoGNKdcsTnD6NQYK-112" value="5" style="shape=partialRectangle;html=1;whiteSpace=wrap;connectable=0;fillColor=none;top=0;left=0;bottom=0;right=0;overflow=hidden;" parent="SRuLFoGNKdcsTnD6NQYK-109" vertex="1">
                    <mxGeometry x="120" width="60" height="40" as="geometry"/>
                </mxCell>
                <mxCell id="SRuLFoGNKdcsTnD6NQYK-113" value="" style="shape=partialRectangle;html=1;whiteSpace=wrap;collapsible=0;dropTarget=0;pointerEvents=0;fillColor=none;top=0;left=0;bottom=0;right=0;points=[[0,0.5],[1,0.5]];portConstraint=eastwest;" parent="SRuLFoGNKdcsTnD6NQYK-108" vertex="1">
                    <mxGeometry y="40" width="180" height="40" as="geometry"/>
                </mxCell>
                <mxCell id="SRuLFoGNKdcsTnD6NQYK-114" value="" style="shape=partialRectangle;html=1;whiteSpace=wrap;connectable=0;fillColor=none;top=0;left=0;bottom=0;right=0;overflow=hidden;" parent="SRuLFoGNKdcsTnD6NQYK-113" vertex="1">
                    <mxGeometry width="60" height="40" as="geometry"/>
                </mxCell>
                <mxCell id="SRuLFoGNKdcsTnD6NQYK-115" value="1" style="shape=partialRectangle;html=1;whiteSpace=wrap;connectable=0;fillColor=none;top=0;left=0;bottom=0;right=0;overflow=hidden;" parent="SRuLFoGNKdcsTnD6NQYK-113" vertex="1">
                    <mxGeometry x="60" width="60" height="40" as="geometry"/>
                </mxCell>
                <mxCell id="SRuLFoGNKdcsTnD6NQYK-116" value="" style="shape=partialRectangle;html=1;whiteSpace=wrap;connectable=0;fillColor=none;top=0;left=0;bottom=0;right=0;overflow=hidden;" parent="SRuLFoGNKdcsTnD6NQYK-113" vertex="1">
                    <mxGeometry x="120" width="60" height="40" as="geometry"/>
                </mxCell>
                <mxCell id="SRuLFoGNKdcsTnD6NQYK-117" value="" style="shape=partialRectangle;html=1;whiteSpace=wrap;collapsible=0;dropTarget=0;pointerEvents=0;fillColor=none;top=0;left=0;bottom=0;right=0;points=[[0,0.5],[1,0.5]];portConstraint=eastwest;" parent="SRuLFoGNKdcsTnD6NQYK-108" vertex="1">
                    <mxGeometry y="80" width="180" height="40" as="geometry"/>
                </mxCell>
                <mxCell id="SRuLFoGNKdcsTnD6NQYK-118" value="" style="shape=partialRectangle;html=1;whiteSpace=wrap;connectable=0;fillColor=none;top=0;left=0;bottom=0;right=0;overflow=hidden;" parent="SRuLFoGNKdcsTnD6NQYK-117" vertex="1">
                    <mxGeometry width="60" height="40" as="geometry"/>
                </mxCell>
                <mxCell id="SRuLFoGNKdcsTnD6NQYK-119" value="" style="shape=partialRectangle;html=1;whiteSpace=wrap;connectable=0;fillColor=none;top=0;left=0;bottom=0;right=0;overflow=hidden;" parent="SRuLFoGNKdcsTnD6NQYK-117" vertex="1">
                    <mxGeometry x="60" width="60" height="40" as="geometry"/>
                </mxCell>
                <mxCell id="SRuLFoGNKdcsTnD6NQYK-120" value="" style="shape=partialRectangle;html=1;whiteSpace=wrap;connectable=0;fillColor=none;top=0;left=0;bottom=0;right=0;overflow=hidden;" parent="SRuLFoGNKdcsTnD6NQYK-117" vertex="1">
                    <mxGeometry x="120" width="60" height="40" as="geometry"/>
                </mxCell>
                <mxCell id="SRuLFoGNKdcsTnD6NQYK-122" style="edgeStyle=orthogonalEdgeStyle;rounded=0;orthogonalLoop=1;jettySize=auto;html=1;entryX=-0.017;entryY=0.025;entryDx=0;entryDy=0;entryPerimeter=0;" parent="SRuLFoGNKdcsTnD6NQYK-1" source="SRuLFoGNKdcsTnD6NQYK-121" target="SRuLFoGNKdcsTnD6NQYK-5" edge="1">
                    <mxGeometry relative="1" as="geometry"/>
                </mxCell>
                <mxCell id="SRuLFoGNKdcsTnD6NQYK-121" value="cage" style="whiteSpace=wrap;html=1;aspect=fixed;" parent="SRuLFoGNKdcsTnD6NQYK-1" vertex="1">
                    <mxGeometry x="90" y="400" width="80" height="80" as="geometry"/>
                </mxCell>
                <mxCell id="SRuLFoGNKdcsTnD6NQYK-125" style="edgeStyle=orthogonalEdgeStyle;rounded=0;orthogonalLoop=1;jettySize=auto;html=1;entryX=0;entryY=0.5;entryDx=0;entryDy=0;" parent="SRuLFoGNKdcsTnD6NQYK-1" source="SRuLFoGNKdcsTnD6NQYK-124" target="SRuLFoGNKdcsTnD6NQYK-5" edge="1">
                    <mxGeometry relative="1" as="geometry">
                        <mxPoint x="190" y="570" as="targetPoint"/>
                    </mxGeometry>
                </mxCell>
                <mxCell id="SRuLFoGNKdcsTnD6NQYK-124" value="column" style="rounded=0;whiteSpace=wrap;html=1;" parent="SRuLFoGNKdcsTnD6NQYK-1" vertex="1">
                    <mxGeometry x="40" y="530" width="80" height="30" as="geometry"/>
                </mxCell>
                <mxCell id="SRuLFoGNKdcsTnD6NQYK-127" style="edgeStyle=orthogonalEdgeStyle;rounded=0;orthogonalLoop=1;jettySize=auto;html=1;entryX=0.2;entryY=0.025;entryDx=0;entryDy=0;entryPerimeter=0;" parent="SRuLFoGNKdcsTnD6NQYK-1" source="SRuLFoGNKdcsTnD6NQYK-126" target="SRuLFoGNKdcsTnD6NQYK-5" edge="1">
                    <mxGeometry relative="1" as="geometry"/>
                </mxCell>
                <mxCell id="SRuLFoGNKdcsTnD6NQYK-126" value="row" style="rounded=0;whiteSpace=wrap;html=1;" parent="SRuLFoGNKdcsTnD6NQYK-1" vertex="1">
                    <mxGeometry x="210" y="380" width="40" height="80" as="geometry"/>
                </mxCell>
                <mxCell id="PbLMljFUMGVKVpyRkLV--0" value="Puzzle class" style="whiteSpace=wrap;html=1;aspect=fixed;" parent="SRuLFoGNKdcsTnD6NQYK-1" vertex="1">
                    <mxGeometry x="440" y="1270" width="80" height="80" as="geometry"/>
                </mxCell>
                <mxCell id="PbLMljFUMGVKVpyRkLV--1" value="Attributes:&lt;br&gt;puzzle[9][9]" style="whiteSpace=wrap;html=1;aspect=fixed;" parent="SRuLFoGNKdcsTnD6NQYK-1" vertex="1">
                    <mxGeometry x="440" y="1140" width="80" height="80" as="geometry"/>
                </mxCell>
                <mxCell id="PbLMljFUMGVKVpyRkLV--2" value="methods:" style="whiteSpace=wrap;html=1;aspect=fixed;" parent="SRuLFoGNKdcsTnD6NQYK-1" vertex="1">
                    <mxGeometry x="440" y="1400" width="80" height="80" as="geometry"/>
                </mxCell>
                <mxCell id="PbLMljFUMGVKVpyRkLV--3" value="getCage()" style="whiteSpace=wrap;html=1;aspect=fixed;" parent="SRuLFoGNKdcsTnD6NQYK-1" vertex="1">
                    <mxGeometry y="1560" width="80" height="80" as="geometry"/>
                </mxCell>
                <mxCell id="PbLMljFUMGVKVpyRkLV--4" value="getCol()" style="whiteSpace=wrap;html=1;aspect=fixed;" parent="SRuLFoGNKdcsTnD6NQYK-1" vertex="1">
                    <mxGeometry x="260" y="1560" width="80" height="80" as="geometry"/>
                </mxCell>
                <mxCell id="PbLMljFUMGVKVpyRkLV--5" value="getRow()" style="whiteSpace=wrap;html=1;aspect=fixed;" parent="SRuLFoGNKdcsTnD6NQYK-1" vertex="1">
                    <mxGeometry x="540" y="1560" width="80" height="80" as="geometry"/>
                </mxCell>
            </root>
        </mxGraphModel>
    </diagram>
</mxfile>